<svg xmlns="http://www.w3.org/2000/svg" viewBox="0 0 176 176"><defs><style>.cls-1{fill:#305f74;}</style></defs><g id="icon_art" data-name="icon art"><path class="cls-1" d="M72.44,89.06a3.49,3.49,0,0,1-3.46-4l3.09-21.66a3.47,3.47,0,0,1,1-2L128.74,5.74a16.62,16.62,0,1,1,23.51,23.51L96.57,84.94a3.53,3.53,0,0,1-2,1L72.94,89A4.19,4.19,0,0,1,72.44,89.06Zm21.66-6.6h0ZM78.83,65.55,76.57,81.43l15.88-2.27L147.31,24.3a9.63,9.63,0,0,0-13.62-13.61Z"/><path class="cls-1" d="M143.59,36.47a3.5,3.5,0,0,1-2.47-1L122.55,16.88a3.5,3.5,0,0,1,5-4.95l18.57,18.56a3.51,3.51,0,0,1-2.48,6Z"/><path class="cls-1" d="M118.62,175.13H31.12a12.26,12.26,0,0,1-12.24-12.25V39.38A12.25,12.25,0,0,1,31.12,27.13H74.88a3.5,3.5,0,0,1,0,7H31.12a5.25,5.25,0,0,0-5.24,5.25v123.5a5.25,5.25,0,0,0,5.24,5.25h87.5a5.26,5.26,0,0,0,5.26-5.25V83.13a3.5,3.5,0,0,1,7,0v79.75A12.27,12.27,0,0,1,118.62,175.13Z"/><path class="cls-1" d="M108.63,109.49H41.12a3.5,3.5,0,1,1,0-7h67.51a3.5,3.5,0,0,1,0,7Z"/><path class="cls-1" d="M108.63,127.3H41.12a3.5,3.5,0,1,1,0-7h67.51a3.5,3.5,0,0,1,0,7Z"/><path class="cls-1" d="M108.63,145.12H41.12a3.5,3.5,0,0,1,0-7h67.51a3.5,3.5,0,0,1,0,7Z"/></g></svg>